<svg id="Layer_1" data-name="Layer 1" xmlns="http://www.w3.org/2000/svg" viewBox="0 0 242.84 89.52" width="242.84" height="89.52"><title>logo</title><path d="M17.44,20.19H32.62v37h23.7v12.1H17.44V20.19Z"/><path d="M60.14,44.79q0-12,6.7-18.74t18.67-6.7q12.27,0,18.9,6.59T111,44.39q0,8.61-2.9,14.13a20.67,20.67,0,0,1-8.38,8.58q-5.48,3.07-13.66,3.07T72.35,67.52a20.71,20.71,0,0,1-8.83-8.38Q60.14,53.41,60.14,44.79Zm15.18,0.07q0,7.44,2.77,10.69a9.36,9.36,0,0,0,7.52,3.25,9.36,9.36,0,0,0,7.57-3.18q2.68-3.18,2.68-11.43,0-6.94-2.8-10.14a9.57,9.57,0,0,0-7.59-3.2A9.22,9.22,0,0,0,78.1,34.1Q75.32,37.35,75.32,44.86Z"/><path d="M143.92,51.53V41.31h23.46V62.26a48.07,48.07,0,0,1-11.91,6.25,40.44,40.44,0,0,1-12.28,1.66q-8.75,0-14.26-3a20.42,20.42,0,0,1-8.55-8.88,29.2,29.2,0,0,1-3-13.54,28.27,28.27,0,0,1,3.32-14,21.49,21.49,0,0,1,9.72-9q5-2.38,13.44-2.38,8.14,0,12.18,1.47a15.82,15.82,0,0,1,6.7,4.57,20.32,20.32,0,0,1,4,7.86l-14.65,2.61A7.93,7.93,0,0,0,149,31.62a9.58,9.58,0,0,0-5.51-1.47,9.94,9.94,0,0,0-8,3.47q-3,3.47-3,11,0,8,3,11.4a10.54,10.54,0,0,0,8.36,3.42,15.9,15.9,0,0,0,4.86-.74,26.25,26.25,0,0,0,5.3-2.51V51.53H143.92Z"/><path d="M174.49,44.79q0-12,6.7-18.74t18.67-6.7q12.27,0,18.9,6.59t6.64,18.45q0,8.61-2.9,14.13a20.67,20.67,0,0,1-8.38,8.58q-5.48,3.07-13.66,3.07t-13.76-2.65a20.71,20.71,0,0,1-8.83-8.38Q174.49,53.41,174.49,44.79Zm15.18,0.07q0,7.44,2.77,10.69a10.47,10.47,0,0,0,15.1.07q2.68-3.18,2.68-11.43,0-6.94-2.8-10.14a9.57,9.57,0,0,0-7.59-3.2,9.22,9.22,0,0,0-7.37,3.25Q189.67,37.35,189.67,44.86Z"/><path d="M242.84,89.52H0V0H242.84V89.52ZM5,84.52H237.84V5H5V84.52Z"/></svg>